<svg width="37" height="36" viewBox="0 0 37 36" fill="none" xmlns="http://www.w3.org/2000/svg">
<mask id="mask0_210_200" style="mask-type:alpha" maskUnits="userSpaceOnUse" x="0" y="0" width="37" height="36">
<rect y="0.244141" width="37" height="35.4892" fill="#D9D9D9"/>
</mask>
<g mask="url(#mask0_210_200)">
<path d="M7.47707 32.776V18.1737H10.5604V29.8186H21.3521V22.6838L25.399 18.8021C26.1441 18.0874 26.7222 17.2864 27.1333 16.3992C27.5444 15.512 27.75 14.5631 27.75 13.5527C27.75 12.5669 27.538 11.6304 27.1141 10.7431C26.6901 9.85589 26.1184 9.05492 25.399 8.34021L24.4354 7.37904L19.5406 12.074H13.3739L11.7167 13.6636L9.51978 11.5934L12.1021 9.11653H18.2687L24.4354 3.20166L27.5958 6.23303C28.6236 7.21884 29.4201 8.33404 29.9854 9.57863C30.5507 10.8232 30.8333 12.1479 30.8333 13.5527C30.8333 14.9575 30.5507 16.2822 29.9854 17.5267C29.4201 18.7713 28.6236 19.8865 27.5958 20.8723L24.4354 23.9037V32.776H7.47707ZM15.0698 25.863L7.05311 18.1737C6.77048 17.9026 6.55207 17.5822 6.39791 17.2125C6.24374 16.8428 6.16666 16.4608 6.16666 16.0665C6.16666 15.6722 6.24374 15.2963 6.39791 14.939C6.55207 14.5816 6.77048 14.2674 7.05311 13.9963L10.2906 10.854L15.0698 15.4011C15.7892 16.0912 16.3481 16.886 16.7463 17.7855C17.1446 18.6851 17.3437 19.6278 17.3437 20.6136C17.3437 21.5994 17.151 22.5421 16.7656 23.4416C16.3802 24.3412 15.8149 25.1483 15.0698 25.863Z" fill="#F7FFF7"/>
</g>
</svg>
